# xmcd
#
# Track frame offsets: 
#        183
#        12258
#        27408
#        41995
#        57045
#        67208
#        80783
#        97995
#        113333
#        125233
#        139770
#        153083
#        163570
#        178245
#        197470
#        206433
#        221808
#        236195
#
# Disc length: 3305 seconds
#
# Revision: 2
# Processed by: cddbd v1.5.2PL0 Copyright (c) Steve Scherf et al.
# Submitted via: ExactAudioCopy v0.99pb4
#
DISCID=040ce712
DTITLE=The Mamas and The Papas - monday monday
DYEAR=1993
DGENRE=Pop
TTITLE0=California Dreamin'
TTITLE1=Monday Monday
TTITLE2=I Saw Her Again
TTITLE3=Look Through my Window
TTITLE4=Words Of Love
TTITLE5=Dedicated To The One I Love
TTITLE6=Creeque Alley
TTITLE7=Twelve Thirty (Young Girls Are Coming To The Canyon)
TTITLE8=I Call Your Name
TTITLE9=Dream A Little Dream Of Me
TTITLE10=It's Getting Better
TTITLE11=Make Your Own Kind Of Music
TTITLE12=Come Away Melinda
TTITLE13=Young Girl's Lament
TTITLE14=The Banjo Song
TTITLE15=Winken Blinken Nod
TTITLE16=Wild Woman
TTITLE17=Tony And Delia
EXTD=\t
EXTT0=
EXTT1=
EXTT2=
EXTT3=
EXTT4=
EXTT5=
EXTT6=
EXTT7=
EXTT8=
EXTT9=
EXTT10=
EXTT11=
EXTT12=
EXTT13=
EXTT14=
EXTT15=
EXTT16=
EXTT17=
PLAYORDER=
